<mxfile host="app.diagrams.net" agent="Mozilla/5.0 (Windows NT 10.0; Win64; x64) AppleWebKit/537.36 (KHTML, like Gecko) Chrome/130.0.0.0 Safari/537.36" version="24.8.3">
  <diagram id="C5RBs43oDa-KdzZeNtuy" name="Page-1">
    <mxGraphModel dx="880" dy="478" grid="1" gridSize="10" guides="1" tooltips="1" connect="1" arrows="1" fold="1" page="1" pageScale="1" pageWidth="827" pageHeight="1169" math="0" shadow="0">
      <root>
        <mxCell id="WIyWlLk6GJQsqaUBKTNV-0" />
        <mxCell id="WIyWlLk6GJQsqaUBKTNV-1" parent="WIyWlLk6GJQsqaUBKTNV-0" />
        <mxCell id="AUlWfMTpm140idI0EFFj-100" value="Mulai Program" style="rounded=1;arcSize=40;strokeWidth=2" vertex="1" parent="WIyWlLk6GJQsqaUBKTNV-1">
          <mxGeometry x="527" y="20" width="129" height="52" as="geometry" />
        </mxCell>
        <mxCell id="AUlWfMTpm140idI0EFFj-101" value="Inisialisasi DHT dan Serial Monitor" style="rounded=1;arcSize=40;strokeWidth=2" vertex="1" parent="WIyWlLk6GJQsqaUBKTNV-1">
          <mxGeometry x="487" y="122" width="209" height="70" as="geometry" />
        </mxCell>
        <mxCell id="AUlWfMTpm140idI0EFFj-102" value="Menghubungkan ke WiFi" style="rounded=1;arcSize=40;strokeWidth=2" vertex="1" parent="WIyWlLk6GJQsqaUBKTNV-1">
          <mxGeometry x="492" y="242" width="200" height="52" as="geometry" />
        </mxCell>
        <mxCell id="AUlWfMTpm140idI0EFFj-103" value="Terhubung ke WiFi" style="rounded=1;arcSize=40;strokeWidth=2" vertex="1" parent="WIyWlLk6GJQsqaUBKTNV-1">
          <mxGeometry x="380" y="370" width="162" height="52" as="geometry" />
        </mxCell>
        <mxCell id="AUlWfMTpm140idI0EFFj-104" value="Loop Utama" style="rhombus;strokeWidth=2;whiteSpace=wrap;" vertex="1" parent="WIyWlLk6GJQsqaUBKTNV-1">
          <mxGeometry x="392" y="498" width="137" height="137" as="geometry" />
        </mxCell>
        <mxCell id="AUlWfMTpm140idI0EFFj-105" value="Membaca Suhu dan Kelembaban dari DHT" style="rounded=1;arcSize=40;strokeWidth=2" vertex="1" parent="WIyWlLk6GJQsqaUBKTNV-1">
          <mxGeometry x="298" y="685" width="183" height="70" as="geometry" />
        </mxCell>
        <mxCell id="AUlWfMTpm140idI0EFFj-106" value="Tampilkan Data di Serial Monitor" style="rounded=1;arcSize=40;strokeWidth=2" vertex="1" parent="WIyWlLk6GJQsqaUBKTNV-1">
          <mxGeometry x="160" y="830" width="201" height="70" as="geometry" />
        </mxCell>
        <mxCell id="AUlWfMTpm140idI0EFFj-107" value="Tampilkan Gagal Membaca Data" style="rounded=1;arcSize=40;strokeWidth=2" vertex="1" parent="WIyWlLk6GJQsqaUBKTNV-1">
          <mxGeometry x="414" y="830" width="215" height="70" as="geometry" />
        </mxCell>
        <mxCell id="AUlWfMTpm140idI0EFFj-108" value="Cek Koneksi WiFi" style="rounded=1;arcSize=40;strokeWidth=2" vertex="1" parent="WIyWlLk6GJQsqaUBKTNV-1">
          <mxGeometry x="183" y="950" width="154" height="52" as="geometry" />
        </mxCell>
        <mxCell id="AUlWfMTpm140idI0EFFj-109" value="Koneksi ke Server ThingSpeak" style="rounded=1;arcSize=40;strokeWidth=2" vertex="1" parent="WIyWlLk6GJQsqaUBKTNV-1">
          <mxGeometry x="311" y="1078" width="158" height="70" as="geometry" />
        </mxCell>
        <mxCell id="AUlWfMTpm140idI0EFFj-110" value="Tampilkan Gagal Terhubung" style="rounded=1;arcSize=40;strokeWidth=2" vertex="1" parent="WIyWlLk6GJQsqaUBKTNV-1">
          <mxGeometry x="20" y="1352" width="221" height="52" as="geometry" />
        </mxCell>
        <mxCell id="AUlWfMTpm140idI0EFFj-111" value="Konversi Data dan Kirim ke ThingSpeak" style="rounded=1;arcSize=40;strokeWidth=2" vertex="1" parent="WIyWlLk6GJQsqaUBKTNV-1">
          <mxGeometry x="279" y="1223" width="223" height="70" as="geometry" />
        </mxCell>
        <mxCell id="AUlWfMTpm140idI0EFFj-112" value="Tampilkan Data Berhasil Dikirim" style="rounded=1;arcSize=40;strokeWidth=2" vertex="1" parent="WIyWlLk6GJQsqaUBKTNV-1">
          <mxGeometry x="291" y="1343" width="198" height="70" as="geometry" />
        </mxCell>
        <mxCell id="AUlWfMTpm140idI0EFFj-113" value="Tunggu 1.5 Detik" style="rounded=1;arcSize=40;strokeWidth=2" vertex="1" parent="WIyWlLk6GJQsqaUBKTNV-1">
          <mxGeometry x="387" y="1463" width="147" height="52" as="geometry" />
        </mxCell>
        <mxCell id="AUlWfMTpm140idI0EFFj-114" value="" style="whiteSpace=wrap;strokeWidth=2;" vertex="1" parent="WIyWlLk6GJQsqaUBKTNV-1">
          <mxGeometry x="592" y="396" as="geometry" />
        </mxCell>
        <mxCell id="AUlWfMTpm140idI0EFFj-115" value="" style="whiteSpace=wrap;strokeWidth=2;" vertex="1" parent="WIyWlLk6GJQsqaUBKTNV-1">
          <mxGeometry x="612" y="566" as="geometry" />
        </mxCell>
        <mxCell id="AUlWfMTpm140idI0EFFj-116" value="" style="curved=1;startArrow=none;endArrow=block;exitX=0.5;exitY=1;entryX=0.5;entryY=0;rounded=0;" edge="1" parent="WIyWlLk6GJQsqaUBKTNV-1" source="AUlWfMTpm140idI0EFFj-100" target="AUlWfMTpm140idI0EFFj-101">
          <mxGeometry relative="1" as="geometry">
            <Array as="points" />
          </mxGeometry>
        </mxCell>
        <mxCell id="AUlWfMTpm140idI0EFFj-117" value="" style="curved=1;startArrow=none;endArrow=block;exitX=0.5;exitY=0.99;entryX=0.5;entryY=-0.01;rounded=0;" edge="1" parent="WIyWlLk6GJQsqaUBKTNV-1" source="AUlWfMTpm140idI0EFFj-101" target="AUlWfMTpm140idI0EFFj-102">
          <mxGeometry relative="1" as="geometry">
            <Array as="points" />
          </mxGeometry>
        </mxCell>
        <mxCell id="AUlWfMTpm140idI0EFFj-118" value="Berhasil" style="curved=1;startArrow=none;endArrow=block;exitX=0.23;exitY=0.99;entryX=0.5;entryY=-0.01;rounded=0;" edge="1" parent="WIyWlLk6GJQsqaUBKTNV-1" source="AUlWfMTpm140idI0EFFj-102" target="AUlWfMTpm140idI0EFFj-103">
          <mxGeometry relative="1" as="geometry">
            <Array as="points">
              <mxPoint x="461" y="332" />
            </Array>
          </mxGeometry>
        </mxCell>
        <mxCell id="AUlWfMTpm140idI0EFFj-119" value="" style="curved=1;startArrow=none;endArrow=none;exitX=0.5;exitY=0.99;entryX=-Infinity;entryY=-Infinity;rounded=0;" edge="1" parent="WIyWlLk6GJQsqaUBKTNV-1" source="AUlWfMTpm140idI0EFFj-102" target="AUlWfMTpm140idI0EFFj-114">
          <mxGeometry relative="1" as="geometry">
            <Array as="points" />
          </mxGeometry>
        </mxCell>
        <mxCell id="AUlWfMTpm140idI0EFFj-120" value="Gagal" style="curved=1;startArrow=none;endArrow=none;exitX=-Infinity;exitY=-Infinity;entryX=Infinity;entryY=Infinity;rounded=0;" edge="1" parent="WIyWlLk6GJQsqaUBKTNV-1" source="AUlWfMTpm140idI0EFFj-114" target="AUlWfMTpm140idI0EFFj-115">
          <mxGeometry relative="1" as="geometry">
            <Array as="points">
              <mxPoint x="592" y="460" />
            </Array>
          </mxGeometry>
        </mxCell>
        <mxCell id="AUlWfMTpm140idI0EFFj-121" value="" style="curved=1;startArrow=none;endArrow=block;exitX=Infinity;exitY=Infinity;entryX=0.58;entryY=0.99;rounded=0;" edge="1" parent="WIyWlLk6GJQsqaUBKTNV-1" source="AUlWfMTpm140idI0EFFj-115" target="AUlWfMTpm140idI0EFFj-102">
          <mxGeometry relative="1" as="geometry">
            <Array as="points">
              <mxPoint x="633" y="460" />
              <mxPoint x="633" y="332" />
            </Array>
          </mxGeometry>
        </mxCell>
        <mxCell id="AUlWfMTpm140idI0EFFj-122" value="" style="curved=1;startArrow=none;endArrow=block;exitX=0.5;exitY=0.99;entryX=0.5;entryY=0;rounded=0;" edge="1" parent="WIyWlLk6GJQsqaUBKTNV-1" source="AUlWfMTpm140idI0EFFj-103" target="AUlWfMTpm140idI0EFFj-104">
          <mxGeometry relative="1" as="geometry">
            <Array as="points" />
          </mxGeometry>
        </mxCell>
        <mxCell id="AUlWfMTpm140idI0EFFj-123" value="" style="curved=1;startArrow=none;endArrow=block;exitX=0.12;exitY=1;entryX=0.5;entryY=-0.01;rounded=0;" edge="1" parent="WIyWlLk6GJQsqaUBKTNV-1" source="AUlWfMTpm140idI0EFFj-104" target="AUlWfMTpm140idI0EFFj-105">
          <mxGeometry relative="1" as="geometry">
            <Array as="points">
              <mxPoint x="389" y="660" />
            </Array>
          </mxGeometry>
        </mxCell>
        <mxCell id="AUlWfMTpm140idI0EFFj-124" value="Berhasil" style="curved=1;startArrow=none;endArrow=block;exitX=0.16;exitY=0.99;entryX=0.5;entryY=0;rounded=0;" edge="1" parent="WIyWlLk6GJQsqaUBKTNV-1" source="AUlWfMTpm140idI0EFFj-105" target="AUlWfMTpm140idI0EFFj-106">
          <mxGeometry relative="1" as="geometry">
            <Array as="points">
              <mxPoint x="260" y="792" />
            </Array>
          </mxGeometry>
        </mxCell>
        <mxCell id="AUlWfMTpm140idI0EFFj-125" value="Gagal" style="curved=1;startArrow=none;endArrow=block;exitX=0.84;exitY=0.99;entryX=0.5;entryY=0;rounded=0;" edge="1" parent="WIyWlLk6GJQsqaUBKTNV-1" source="AUlWfMTpm140idI0EFFj-105" target="AUlWfMTpm140idI0EFFj-107">
          <mxGeometry relative="1" as="geometry">
            <Array as="points">
              <mxPoint x="521" y="792" />
            </Array>
          </mxGeometry>
        </mxCell>
        <mxCell id="AUlWfMTpm140idI0EFFj-126" value="" style="curved=1;startArrow=none;endArrow=block;exitX=0.5;exitY=1;entryX=0.5;entryY=0;rounded=0;" edge="1" parent="WIyWlLk6GJQsqaUBKTNV-1" source="AUlWfMTpm140idI0EFFj-106" target="AUlWfMTpm140idI0EFFj-108">
          <mxGeometry relative="1" as="geometry">
            <Array as="points" />
          </mxGeometry>
        </mxCell>
        <mxCell id="AUlWfMTpm140idI0EFFj-127" value="Terhubung" style="curved=1;startArrow=none;endArrow=block;exitX=0.84;exitY=1;entryX=0.5;entryY=0;rounded=0;" edge="1" parent="WIyWlLk6GJQsqaUBKTNV-1" source="AUlWfMTpm140idI0EFFj-108" target="AUlWfMTpm140idI0EFFj-109">
          <mxGeometry relative="1" as="geometry">
            <Array as="points">
              <mxPoint x="390" y="1040" />
            </Array>
          </mxGeometry>
        </mxCell>
        <mxCell id="AUlWfMTpm140idI0EFFj-128" value="Tidak Terhubung" style="curved=1;startArrow=none;endArrow=block;exitX=0.16;exitY=1;entryX=0.5;entryY=0;rounded=0;" edge="1" parent="WIyWlLk6GJQsqaUBKTNV-1" source="AUlWfMTpm140idI0EFFj-108" target="AUlWfMTpm140idI0EFFj-110">
          <mxGeometry relative="1" as="geometry">
            <Array as="points">
              <mxPoint x="131" y="1040" />
            </Array>
          </mxGeometry>
        </mxCell>
        <mxCell id="AUlWfMTpm140idI0EFFj-129" value="" style="curved=1;startArrow=none;endArrow=block;exitX=0.5;exitY=0.99;entryX=0.5;entryY=0.01;rounded=0;" edge="1" parent="WIyWlLk6GJQsqaUBKTNV-1" source="AUlWfMTpm140idI0EFFj-109" target="AUlWfMTpm140idI0EFFj-111">
          <mxGeometry relative="1" as="geometry">
            <Array as="points" />
          </mxGeometry>
        </mxCell>
        <mxCell id="AUlWfMTpm140idI0EFFj-130" value="" style="curved=1;startArrow=none;endArrow=block;exitX=0.5;exitY=1;entryX=0.5;entryY=0;rounded=0;" edge="1" parent="WIyWlLk6GJQsqaUBKTNV-1" source="AUlWfMTpm140idI0EFFj-111" target="AUlWfMTpm140idI0EFFj-112">
          <mxGeometry relative="1" as="geometry">
            <Array as="points" />
          </mxGeometry>
        </mxCell>
        <mxCell id="AUlWfMTpm140idI0EFFj-131" value="" style="curved=1;startArrow=none;endArrow=block;exitX=0.5;exitY=1;entryX=0;entryY=0.27;rounded=0;" edge="1" parent="WIyWlLk6GJQsqaUBKTNV-1" source="AUlWfMTpm140idI0EFFj-110" target="AUlWfMTpm140idI0EFFj-113">
          <mxGeometry relative="1" as="geometry">
            <Array as="points">
              <mxPoint x="131" y="1438" />
            </Array>
          </mxGeometry>
        </mxCell>
        <mxCell id="AUlWfMTpm140idI0EFFj-132" value="" style="curved=1;startArrow=none;endArrow=block;exitX=0.5;exitY=0.99;entryX=0.26;entryY=-0.01;rounded=0;" edge="1" parent="WIyWlLk6GJQsqaUBKTNV-1" source="AUlWfMTpm140idI0EFFj-112" target="AUlWfMTpm140idI0EFFj-113">
          <mxGeometry relative="1" as="geometry">
            <Array as="points">
              <mxPoint x="390" y="1438" />
            </Array>
          </mxGeometry>
        </mxCell>
        <mxCell id="AUlWfMTpm140idI0EFFj-133" value="" style="curved=1;startArrow=none;endArrow=block;exitX=1;exitY=0.14;entryX=1;entryY=0.73;rounded=0;" edge="1" parent="WIyWlLk6GJQsqaUBKTNV-1" source="AUlWfMTpm140idI0EFFj-113" target="AUlWfMTpm140idI0EFFj-104">
          <mxGeometry relative="1" as="geometry">
            <Array as="points">
              <mxPoint x="664" y="1438" />
              <mxPoint x="664" y="660" />
            </Array>
          </mxGeometry>
        </mxCell>
      </root>
    </mxGraphModel>
  </diagram>
</mxfile>
